<svg xmlns="http://www.w3.org/2000/svg" viewBox="0 0 512 512" role="img" aria-label="Pelican">
  <defs>
    <linearGradient id="pelican-bg" x1="82" y1="42" x2="438" y2="470" gradientUnits="userSpaceOnUse">
      <stop stop-color="#173a75"/>
      <stop offset="0.55" stop-color="#0b2856"/>
      <stop offset="1" stop-color="#061a3c"/>
    </linearGradient>
    <linearGradient id="pelican-pouch" x1="226" y1="174" x2="348" y2="304" gradientUnits="userSpaceOnUse">
      <stop stop-color="#19c9d2"/>
      <stop offset="0.58" stop-color="#0aaebb"/>
      <stop offset="1" stop-color="#087b97"/>
    </linearGradient>
    <linearGradient id="pelican-wing" x1="152" y1="320" x2="263" y2="380" gradientUnits="userSpaceOnUse">
      <stop stop-color="#617bd1"/>
      <stop offset="1" stop-color="#27488f"/>
    </linearGradient>
  </defs>
  <rect x="20" y="20" width="472" height="472" rx="112" fill="url(#pelican-bg)"/>
  <path d="M257 281c-55 17-99 65-107 139 52-23 91-53 117-94 10-16 15-31 16-46-8-2-17-2-26 1Z" fill="url(#pelican-wing)"/>
  <path d="M235 137 391 226l-15 34-158-77Z" fill="#f8fbff"/>
  <path d="M218 166c-8-4-17 1-16 11 2 15 29 34 55 56 31 27 47 54 45 83 43-8 76-34 89-90Z" fill="url(#pelican-pouch)"/>
  <path d="M221 151c0 48 61 66 62 137 1 47-23 87-64 119" fill="none" stroke="#fbfdff" stroke-width="43" stroke-linecap="round" stroke-linejoin="round"/>
  <circle cx="218" cy="136" r="46" fill="#fbfdff"/>
  <circle cx="225" cy="132" r="10" fill="#0a2859"/>
</svg>
